<?xml version="1.0" encoding="UTF-8"?>
<svg id="Capa_2" data-name="Capa 2" xmlns="http://www.w3.org/2000/svg" viewBox="0 0 287.18 123.35">
  <g id="Capa_2-2" data-name="Capa 2">
    <g>
      <g>
        <path d="M268.27,123.35h-62.52c-6.68,0-12.73-3.42-16.18-9.15-3.45-5.73-3.63-12.67-.5-18.58l25.55-48.18c.78-1.47,1.19-3.14,1.19-4.8v-20.2c-5.65-.64-10.05-5.44-10.05-11.25,0-6.17,5.02-11.18,11.18-11.18h40.13c6.17,0,11.18,5.02,11.18,11.18v.07c0,5.8-4.41,10.59-10.05,11.19v20.19c0,1.67.41,3.33,1.19,4.8l25.55,48.18c3.13,5.91,2.94,12.85-.5,18.58-3.45,5.73-9.49,9.15-16.18,9.15ZM216.95,7.07c-2.27,0-4.11,1.84-4.11,4.11s1.91,4.25,4.25,4.25h2.26c1.95,0,3.54,1.58,3.54,3.54v23.67c0,2.82-.7,5.63-2.02,8.12l-25.55,48.18c-1.96,3.69-1.84,8.04.31,11.62,2.16,3.58,5.94,5.72,10.12,5.72h62.52c4.18,0,7.96-2.14,10.12-5.72,2.16-3.58,2.27-7.92.31-11.62h0l-25.55-48.18c-1.32-2.49-2.02-5.3-2.02-8.12v-23.67c0-1.95,1.58-3.54,3.54-3.54h2.33c2.3,0,4.18-1.88,4.18-4.18v-.07c0-2.27-1.84-4.11-4.11-4.11h-40.13Z"/>
        <circle cx="240.59" cy="55.69" r="3.44"/>
        <circle cx="227.43" cy="67.44" r="4.96"/>
        <circle cx="249.91" cy="74.02" r="6.08"/>
        <path d="M210.21,81.01l-12.15,21.67s-2.63,7.49,4.35,8.2,69.27,0,69.27,0c0,0,7.9-2.03,3.85-9.42l-9.42-16.81s-1.32,2.84-12.05,2.84-17.82-10.43-28.76-10.43-15.09,3.95-15.09,3.95Z"/>
      </g>
      <g>
        <path d="M70.72,97.14l-9.21-26.15H25.51l-9.21,26.15H0L35.04,2.58h17.13l34.97,94.55h-16.42ZM57.52,57.72l-8.95-25.76c-.34-1.12-.84-2.69-1.48-4.73-.64-2.04-1.29-4.12-1.93-6.25-.64-2.13-1.18-3.92-1.61-5.38-.43,1.76-.96,3.73-1.58,5.89-.62,2.17-1.22,4.2-1.8,6.09-.58,1.89-1.02,3.35-1.32,4.38l-9.02,25.76h27.7Z"/>
        <path d="M99.58,2.97h28.02c12.15,0,21.32,1.76,27.5,5.28,6.18,3.52,9.28,9.6,9.28,18.23,0,3.61-.63,6.86-1.9,9.76-1.27,2.9-3.1,5.28-5.51,7.15-2.41,1.87-5.37,3.12-8.89,3.77v.64c3.65.64,6.9,1.78,9.76,3.41,2.86,1.63,5.11,3.97,6.76,7.02,1.65,3.05,2.48,7,2.48,11.85,0,5.75-1.36,10.65-4.09,14.69-2.73,4.04-6.61,7.11-11.66,9.21-5.05,2.1-11.02,3.16-17.94,3.16h-33.81V2.97ZM115.04,41.81h14.81c7,0,11.85-1.14,14.56-3.41,2.71-2.28,4.06-5.6,4.06-9.98s-1.6-7.69-4.8-9.66c-3.2-1.97-8.28-2.96-15.23-2.96h-13.4v26.02ZM115.04,54.3v29.89h16.3c7.21,0,12.28-1.4,15.2-4.19,2.92-2.79,4.38-6.57,4.38-11.34,0-2.92-.66-5.45-1.96-7.6-1.31-2.15-3.45-3.81-6.41-4.99-2.96-1.18-6.96-1.77-11.98-1.77h-15.52Z"/>
      </g>
      <rect y="111.21" width="167.08" height="12.14"/>
    </g>
  </g>
</svg>